<svg xmlns="http://www.w3.org/2000/svg" xmlns:xlink="http://www.w3.org/1999/xlink" width="5000" zoomAndPan="magnify" viewBox="0 0 3750 3749.999967" height="5000" preserveAspectRatio="xMidYMid meet" version="1.0"><defs><clipPath id="06f01a643b"><path d="M 648.828125 0 L 1619.585938 0 L 1619.585938 3750 L 648.828125 3750 Z M 648.828125 0 " clip-rule="nonzero"/></clipPath><clipPath id="302615f7fa"><path d="M 0.828125 0 L 971.585938 0 L 971.585938 3750 L 0.828125 3750 Z M 0.828125 0 " clip-rule="nonzero"/></clipPath><clipPath id="6b808cf131"><rect x="0" width="972" y="0" height="3750"/></clipPath><clipPath id="691d6367fc"><path d="M 2130.414062 2808.242188 L 3100.957031 2808.242188 L 3100.957031 3750 L 2130.414062 3750 Z M 2130.414062 2808.242188 " clip-rule="nonzero"/></clipPath><clipPath id="e0e6c01afe"><path d="M 0.414062 0.242188 L 970.957031 0.242188 L 970.957031 942 L 0.414062 942 Z M 0.414062 0.242188 " clip-rule="nonzero"/></clipPath><clipPath id="f8d202036d"><rect x="0" width="971" y="0" height="942"/></clipPath></defs><g clip-path="url(#06f01a643b)"><g transform="matrix(1, 0, 0, 1, 648, 0.000000000000269639)"><g clip-path="url(#6b808cf131)"><g clip-path="url(#302615f7fa)"><path fill="#0b7cd2" d="M 0.828125 0 L 971.585938 0 L 971.585938 3750.3125 L 0.828125 3750.3125 Z M 0.828125 0 " fill-opacity="1" fill-rule="nonzero"/></g></g></g></g><g clip-path="url(#691d6367fc)"><g transform="matrix(1, 0, 0, 1, 2130, 2808)"><g clip-path="url(#f8d202036d)"><g clip-path="url(#e0e6c01afe)"><path fill="#fbc03c" d="M 0.414062 0.242188 L 971.601562 0.242188 L 971.601562 942 L 0.414062 942 Z M 0.414062 0.242188 " fill-opacity="1" fill-rule="nonzero"/></g></g></g></g></svg>