<svg xmlns="http://www.w3.org/2000/svg" xmlns:xlink="http://www.w3.org/1999/xlink" width="3400" zoomAndPan="magnify" viewBox="0 0 2550 675.000002" height="900" preserveAspectRatio="xMidYMid meet" version="1.0"><defs><g/><clipPath id="66889fede8"><path d="M 0.242188 0.550781 L 2456.84375 0.550781 L 2456.84375 607.332031 L 0.242188 607.332031 Z M 0.242188 0.550781 " clip-rule="nonzero"/></clipPath><clipPath id="c968e98103"><rect x="0" width="2457" y="0" height="608"/></clipPath><clipPath id="b220b6f6de"><path d="M 2146.972656 468.871094 L 2435.578125 468.871094 L 2435.578125 552.304688 L 2146.972656 552.304688 Z M 2146.972656 468.871094 " clip-rule="nonzero"/></clipPath><clipPath id="1127648e98"><path d="M 0.972656 0.871094 L 289.578125 0.871094 L 289.578125 84.304688 L 0.972656 84.304688 Z M 0.972656 0.871094 " clip-rule="nonzero"/></clipPath><clipPath id="0b30a55edb"><rect x="0" width="290" y="0" height="85"/></clipPath><clipPath id="322e16cc97"><rect x="0" width="2457" y="0" height="608"/></clipPath></defs><g transform="matrix(1, 0, 0, 1, 57, 33)"><g clip-path="url(#322e16cc97)"><g clip-path="url(#66889fede8)"><g transform="matrix(1, 0, 0, 1, -0.000000000000014211, -0.000000000000014211)"><g clip-path="url(#c968e98103)"><g fill="#000000" fill-opacity="0.4"><g transform="translate(0.421529, 428.307037)"><g><path d="M 121.65625 -404.71875 L 121.65625 -80.9375 L 260.984375 -80.9375 L 260.984375 0 L 29.4375 0 L 29.4375 -404.71875 Z M 121.65625 -404.71875 "/></g></g></g><g fill="#000000" fill-opacity="0.4"><g transform="translate(255.992432, 428.307037)"><g><path d="M 284.03125 -113.8125 L 101.546875 -113.8125 C 101.546875 -96.144531 107.269531 -83.0625 118.71875 -74.5625 C 130.164062 -66.0625 142.59375 -61.8125 156 -61.8125 C 170.0625 -61.8125 181.179688 -63.691406 189.359375 -67.453125 C 197.535156 -71.210938 206.851562 -78.648438 217.3125 -89.765625 L 280.109375 -58.375 C 253.941406 -14.550781 210.445312 7.359375 149.625 7.359375 C 111.6875 7.359375 79.144531 -5.640625 52 -31.640625 C 24.851562 -57.640625 11.28125 -88.953125 11.28125 -125.578125 C 11.28125 -162.210938 24.851562 -193.609375 52 -219.765625 C 79.144531 -245.929688 111.6875 -259.015625 149.625 -259.015625 C 189.519531 -259.015625 221.976562 -247.484375 247 -224.421875 C 272.019531 -201.367188 284.53125 -168.421875 284.53125 -125.578125 C 284.53125 -119.691406 284.363281 -115.769531 284.03125 -113.8125 Z M 104 -161.890625 L 199.65625 -161.890625 C 197.695312 -174.972656 192.546875 -185.03125 184.203125 -192.0625 C 175.867188 -199.09375 165.160156 -202.609375 152.078125 -202.609375 C 137.679688 -202.609375 126.234375 -198.84375 117.734375 -191.3125 C 109.234375 -183.789062 104.65625 -173.984375 104 -161.890625 Z M 104 -161.890625 "/></g></g></g><g fill="#000000" fill-opacity="0.4"><g transform="translate(530.203964, 428.307037)"><g><path d="M 29.4375 0 L 29.4375 -251.65625 L 116.265625 -251.65625 L 116.265625 -225.171875 L 117.25 -225.171875 C 139.8125 -247.734375 163.847656 -259.015625 189.359375 -259.015625 C 201.785156 -259.015625 214.128906 -257.378906 226.390625 -254.109375 C 238.660156 -250.835938 250.4375 -245.769531 261.71875 -238.90625 C 273 -232.039062 282.15625 -222.3125 289.1875 -209.71875 C 296.21875 -197.125 299.734375 -182.488281 299.734375 -165.8125 L 299.734375 0 L 212.90625 0 L 212.90625 -142.265625 C 212.90625 -155.347656 208.734375 -166.789062 200.390625 -176.59375 C 192.054688 -186.40625 181.179688 -191.3125 167.765625 -191.3125 C 154.691406 -191.3125 142.835938 -186.242188 132.203125 -176.109375 C 121.578125 -165.972656 116.265625 -154.691406 116.265625 -142.265625 L 116.265625 0 Z M 29.4375 0 "/></g></g></g><g fill="#000000" fill-opacity="0.4"><g transform="translate(832.866941, 428.307037)"><g><path d="M 44.15625 -251.65625 L 44.15625 -345.359375 L 130.984375 -345.359375 L 130.984375 -251.65625 L 183.953125 -251.65625 L 183.953125 -185.4375 L 130.984375 -185.4375 L 130.984375 -105.46875 C 130.984375 -82.25 137.523438 -70.640625 150.609375 -70.640625 C 153.878906 -70.640625 157.3125 -71.289062 160.90625 -72.59375 C 164.5 -73.90625 167.28125 -75.21875 169.25 -76.53125 L 172.1875 -78.484375 L 193.765625 -8.34375 C 175.128906 2.125 153.875 7.359375 130 7.359375 C 113.644531 7.359375 99.582031 4.5 87.8125 -1.21875 C 76.039062 -6.945312 67.128906 -14.632812 61.078125 -24.28125 C 55.023438 -33.925781 50.691406 -44.0625 48.078125 -54.6875 C 45.460938 -65.320312 44.15625 -76.691406 44.15625 -88.796875 L 44.15625 -185.4375 L 7.84375 -185.4375 L 7.84375 -251.65625 Z M 44.15625 -251.65625 "/></g></g></g><g fill="#000000" fill-opacity="0.4"><g transform="translate(1005.04537, 428.307037)"><g><path d="M 284.03125 -113.8125 L 101.546875 -113.8125 C 101.546875 -96.144531 107.269531 -83.0625 118.71875 -74.5625 C 130.164062 -66.0625 142.59375 -61.8125 156 -61.8125 C 170.0625 -61.8125 181.179688 -63.691406 189.359375 -67.453125 C 197.535156 -71.210938 206.851562 -78.648438 217.3125 -89.765625 L 280.109375 -58.375 C 253.941406 -14.550781 210.445312 7.359375 149.625 7.359375 C 111.6875 7.359375 79.144531 -5.640625 52 -31.640625 C 24.851562 -57.640625 11.28125 -88.953125 11.28125 -125.578125 C 11.28125 -162.210938 24.851562 -193.609375 52 -219.765625 C 79.144531 -245.929688 111.6875 -259.015625 149.625 -259.015625 C 189.519531 -259.015625 221.976562 -247.484375 247 -224.421875 C 272.019531 -201.367188 284.53125 -168.421875 284.53125 -125.578125 C 284.53125 -119.691406 284.363281 -115.769531 284.03125 -113.8125 Z M 104 -161.890625 L 199.65625 -161.890625 C 197.695312 -174.972656 192.546875 -185.03125 184.203125 -192.0625 C 175.867188 -199.09375 165.160156 -202.609375 152.078125 -202.609375 C 137.679688 -202.609375 126.234375 -198.84375 117.734375 -191.3125 C 109.234375 -183.789062 104.65625 -173.984375 104 -161.890625 Z M 104 -161.890625 "/></g></g></g><g fill="#000000" fill-opacity="0.4"><g transform="translate(1279.256902, 428.307037)"><g><path d="M 29.4375 0 L 29.4375 -251.65625 L 116.265625 -251.65625 L 116.265625 -215.359375 L 117.25 -215.359375 C 117.894531 -216.660156 118.953125 -218.289062 120.421875 -220.25 C 121.898438 -222.21875 125.09375 -225.65625 130 -230.5625 C 134.90625 -235.46875 140.132812 -239.882812 145.6875 -243.8125 C 151.25 -247.738281 158.445312 -251.253906 167.28125 -254.359375 C 176.113281 -257.460938 185.109375 -259.015625 194.265625 -259.015625 C 203.742188 -259.015625 213.0625 -257.707031 222.21875 -255.09375 C 231.375 -252.476562 238.082031 -249.863281 242.34375 -247.25 L 249.203125 -243.3125 L 212.90625 -169.734375 C 202.113281 -178.890625 187.066406 -183.46875 167.765625 -183.46875 C 157.304688 -183.46875 148.316406 -181.175781 140.796875 -176.59375 C 133.273438 -172.019531 127.957031 -166.460938 124.84375 -159.921875 C 121.738281 -153.378906 119.53125 -147.816406 118.21875 -143.234375 C 116.914062 -138.660156 116.265625 -135.066406 116.265625 -132.453125 L 116.265625 0 Z M 29.4375 0 "/></g></g></g><g fill="#000000" fill-opacity="0.4"><g transform="translate(1501.96131, 428.307037)"><g><path d="M 46.59375 -31.140625 C 23.050781 -56.816406 11.28125 -88.296875 11.28125 -125.578125 C 11.28125 -162.867188 23.050781 -194.429688 46.59375 -220.265625 C 70.144531 -246.097656 100.070312 -259.015625 136.375 -259.015625 C 169.726562 -259.015625 197.203125 -248.550781 218.796875 -227.625 L 218.796875 -251.65625 L 305.625 -251.65625 L 305.625 0 L 219.765625 0 L 219.765625 -28.453125 L 218.796875 -28.453125 C 197.203125 -4.578125 169.726562 7.359375 136.375 7.359375 C 100.070312 7.359375 70.144531 -5.472656 46.59375 -31.140625 Z M 120.4375 -168.25 C 109.15625 -157.132812 103.515625 -142.910156 103.515625 -125.578125 C 103.515625 -108.242188 108.910156 -94.097656 119.703125 -83.140625 C 130.492188 -72.191406 144.71875 -66.71875 162.375 -66.71875 C 179.382812 -66.71875 193.363281 -72.273438 204.3125 -83.390625 C 215.269531 -94.515625 220.75 -108.578125 220.75 -125.578125 C 220.75 -142.910156 215.109375 -157.132812 203.828125 -168.25 C 192.546875 -179.375 178.726562 -184.9375 162.375 -184.9375 C 145.695312 -184.9375 131.71875 -179.375 120.4375 -168.25 Z M 120.4375 -168.25 "/></g></g></g><g fill="#000000" fill-opacity="0.4"><g transform="translate(1815.416268, 428.307037)"><g><path d="M 18.15625 61.8125 L 89.28125 26.984375 C 102.363281 48.566406 125.09375 59.359375 157.46875 59.359375 C 172.507812 59.359375 186.488281 54.535156 199.40625 44.890625 C 212.332031 35.242188 218.796875 20.441406 218.796875 0.484375 L 218.796875 -18.15625 C 203.421875 -1.144531 175.945312 7.359375 136.375 7.359375 C 100.070312 7.359375 70.144531 -5.472656 46.59375 -31.140625 C 23.050781 -56.816406 11.28125 -88.296875 11.28125 -125.578125 C 11.28125 -162.867188 23.050781 -194.429688 46.59375 -220.265625 C 70.144531 -246.097656 100.070312 -259.015625 136.375 -259.015625 C 168.75 -259.015625 195.726562 -249.039062 217.3125 -229.09375 L 218.796875 -229.09375 L 218.796875 -251.65625 L 305.625 -251.65625 L 305.625 6.875 C 305.625 47.75 292.050781 79.304688 264.90625 101.546875 C 237.757812 123.785156 201.945312 134.90625 157.46875 134.90625 C 85.519531 134.90625 39.082031 110.539062 18.15625 61.8125 Z M 120.4375 -168.25 C 109.15625 -157.132812 103.515625 -142.910156 103.515625 -125.578125 C 103.515625 -108.242188 108.910156 -94.097656 119.703125 -83.140625 C 130.492188 -72.191406 144.71875 -66.71875 162.375 -66.71875 C 179.382812 -66.71875 193.363281 -72.273438 204.3125 -83.390625 C 215.269531 -94.515625 220.75 -108.578125 220.75 -125.578125 C 220.75 -142.910156 215.109375 -157.132812 203.828125 -168.25 C 192.546875 -179.375 178.726562 -184.9375 162.375 -184.9375 C 145.695312 -184.9375 131.71875 -179.375 120.4375 -168.25 Z M 120.4375 -168.25 "/></g></g></g><g fill="#000000" fill-opacity="0.4"><g transform="translate(2128.871226, 428.307037)"><g><path d="M 53.21875 -29.921875 C 25.257812 -54.773438 11.28125 -86.660156 11.28125 -125.578125 C 11.28125 -164.492188 25.832031 -196.460938 54.9375 -221.484375 C 84.050781 -246.503906 120.023438 -259.015625 162.859375 -259.015625 C 205.054688 -259.015625 240.625 -246.421875 269.5625 -221.234375 C 298.507812 -196.054688 312.984375 -164.171875 312.984375 -125.578125 C 312.984375 -86.992188 298.835938 -55.191406 270.546875 -30.171875 C 242.253906 -5.148438 206.359375 7.359375 162.859375 7.359375 C 117.734375 7.359375 81.1875 -5.066406 53.21875 -29.921875 Z M 120.4375 -168.25 C 109.15625 -157.132812 103.515625 -142.910156 103.515625 -125.578125 C 103.515625 -108.242188 108.910156 -94.097656 119.703125 -83.140625 C 130.492188 -72.191406 144.71875 -66.71875 162.375 -66.71875 C 179.382812 -66.71875 193.363281 -72.273438 204.3125 -83.390625 C 215.269531 -94.515625 220.75 -108.578125 220.75 -125.578125 C 220.75 -142.910156 215.109375 -157.132812 203.828125 -168.25 C 192.546875 -179.375 178.726562 -184.9375 162.375 -184.9375 C 145.695312 -184.9375 131.71875 -179.375 120.4375 -168.25 Z M 120.4375 -168.25 "/></g></g></g><g fill="#ffffff" fill-opacity="1"><g transform="translate(0.421529, 428.307037)"><g><path d="M 121.65625 -404.71875 L 121.65625 -80.9375 L 260.984375 -80.9375 L 260.984375 0 L 29.4375 0 L 29.4375 -404.71875 Z M 121.65625 -404.71875 "/></g></g></g><g fill="#ffffff" fill-opacity="1"><g transform="translate(255.992432, 428.307037)"><g><path d="M 284.03125 -113.8125 L 101.546875 -113.8125 C 101.546875 -96.144531 107.269531 -83.0625 118.71875 -74.5625 C 130.164062 -66.0625 142.59375 -61.8125 156 -61.8125 C 170.0625 -61.8125 181.179688 -63.691406 189.359375 -67.453125 C 197.535156 -71.210938 206.851562 -78.648438 217.3125 -89.765625 L 280.109375 -58.375 C 253.941406 -14.550781 210.445312 7.359375 149.625 7.359375 C 111.6875 7.359375 79.144531 -5.640625 52 -31.640625 C 24.851562 -57.640625 11.28125 -88.953125 11.28125 -125.578125 C 11.28125 -162.210938 24.851562 -193.609375 52 -219.765625 C 79.144531 -245.929688 111.6875 -259.015625 149.625 -259.015625 C 189.519531 -259.015625 221.976562 -247.484375 247 -224.421875 C 272.019531 -201.367188 284.53125 -168.421875 284.53125 -125.578125 C 284.53125 -119.691406 284.363281 -115.769531 284.03125 -113.8125 Z M 104 -161.890625 L 199.65625 -161.890625 C 197.695312 -174.972656 192.546875 -185.03125 184.203125 -192.0625 C 175.867188 -199.09375 165.160156 -202.609375 152.078125 -202.609375 C 137.679688 -202.609375 126.234375 -198.84375 117.734375 -191.3125 C 109.234375 -183.789062 104.65625 -173.984375 104 -161.890625 Z M 104 -161.890625 "/></g></g></g><g fill="#ffffff" fill-opacity="1"><g transform="translate(530.203964, 428.307037)"><g><path d="M 29.4375 0 L 29.4375 -251.65625 L 116.265625 -251.65625 L 116.265625 -225.171875 L 117.25 -225.171875 C 139.8125 -247.734375 163.847656 -259.015625 189.359375 -259.015625 C 201.785156 -259.015625 214.128906 -257.378906 226.390625 -254.109375 C 238.660156 -250.835938 250.4375 -245.769531 261.71875 -238.90625 C 273 -232.039062 282.15625 -222.3125 289.1875 -209.71875 C 296.21875 -197.125 299.734375 -182.488281 299.734375 -165.8125 L 299.734375 0 L 212.90625 0 L 212.90625 -142.265625 C 212.90625 -155.347656 208.734375 -166.789062 200.390625 -176.59375 C 192.054688 -186.40625 181.179688 -191.3125 167.765625 -191.3125 C 154.691406 -191.3125 142.835938 -186.242188 132.203125 -176.109375 C 121.578125 -165.972656 116.265625 -154.691406 116.265625 -142.265625 L 116.265625 0 Z M 29.4375 0 "/></g></g></g><g fill="#ffffff" fill-opacity="1"><g transform="translate(832.866941, 428.307037)"><g><path d="M 44.15625 -251.65625 L 44.15625 -345.359375 L 130.984375 -345.359375 L 130.984375 -251.65625 L 183.953125 -251.65625 L 183.953125 -185.4375 L 130.984375 -185.4375 L 130.984375 -105.46875 C 130.984375 -82.25 137.523438 -70.640625 150.609375 -70.640625 C 153.878906 -70.640625 157.3125 -71.289062 160.90625 -72.59375 C 164.5 -73.90625 167.28125 -75.21875 169.25 -76.53125 L 172.1875 -78.484375 L 193.765625 -8.34375 C 175.128906 2.125 153.875 7.359375 130 7.359375 C 113.644531 7.359375 99.582031 4.5 87.8125 -1.21875 C 76.039062 -6.945312 67.128906 -14.632812 61.078125 -24.28125 C 55.023438 -33.925781 50.691406 -44.0625 48.078125 -54.6875 C 45.460938 -65.320312 44.15625 -76.691406 44.15625 -88.796875 L 44.15625 -185.4375 L 7.84375 -185.4375 L 7.84375 -251.65625 Z M 44.15625 -251.65625 "/></g></g></g><g fill="#ffffff" fill-opacity="1"><g transform="translate(1005.04537, 428.307037)"><g><path d="M 284.03125 -113.8125 L 101.546875 -113.8125 C 101.546875 -96.144531 107.269531 -83.0625 118.71875 -74.5625 C 130.164062 -66.0625 142.59375 -61.8125 156 -61.8125 C 170.0625 -61.8125 181.179688 -63.691406 189.359375 -67.453125 C 197.535156 -71.210938 206.851562 -78.648438 217.3125 -89.765625 L 280.109375 -58.375 C 253.941406 -14.550781 210.445312 7.359375 149.625 7.359375 C 111.6875 7.359375 79.144531 -5.640625 52 -31.640625 C 24.851562 -57.640625 11.28125 -88.953125 11.28125 -125.578125 C 11.28125 -162.210938 24.851562 -193.609375 52 -219.765625 C 79.144531 -245.929688 111.6875 -259.015625 149.625 -259.015625 C 189.519531 -259.015625 221.976562 -247.484375 247 -224.421875 C 272.019531 -201.367188 284.53125 -168.421875 284.53125 -125.578125 C 284.53125 -119.691406 284.363281 -115.769531 284.03125 -113.8125 Z M 104 -161.890625 L 199.65625 -161.890625 C 197.695312 -174.972656 192.546875 -185.03125 184.203125 -192.0625 C 175.867188 -199.09375 165.160156 -202.609375 152.078125 -202.609375 C 137.679688 -202.609375 126.234375 -198.84375 117.734375 -191.3125 C 109.234375 -183.789062 104.65625 -173.984375 104 -161.890625 Z M 104 -161.890625 "/></g></g></g><g fill="#ffffff" fill-opacity="1"><g transform="translate(1279.256902, 428.307037)"><g><path d="M 29.4375 0 L 29.4375 -251.65625 L 116.265625 -251.65625 L 116.265625 -215.359375 L 117.25 -215.359375 C 117.894531 -216.660156 118.953125 -218.289062 120.421875 -220.25 C 121.898438 -222.21875 125.09375 -225.65625 130 -230.5625 C 134.90625 -235.46875 140.132812 -239.882812 145.6875 -243.8125 C 151.25 -247.738281 158.445312 -251.253906 167.28125 -254.359375 C 176.113281 -257.460938 185.109375 -259.015625 194.265625 -259.015625 C 203.742188 -259.015625 213.0625 -257.707031 222.21875 -255.09375 C 231.375 -252.476562 238.082031 -249.863281 242.34375 -247.25 L 249.203125 -243.3125 L 212.90625 -169.734375 C 202.113281 -178.890625 187.066406 -183.46875 167.765625 -183.46875 C 157.304688 -183.46875 148.316406 -181.175781 140.796875 -176.59375 C 133.273438 -172.019531 127.957031 -166.460938 124.84375 -159.921875 C 121.738281 -153.378906 119.53125 -147.816406 118.21875 -143.234375 C 116.914062 -138.660156 116.265625 -135.066406 116.265625 -132.453125 L 116.265625 0 Z M 29.4375 0 "/></g></g></g><g fill="#ffffff" fill-opacity="1"><g transform="translate(1501.96131, 428.307037)"><g><path d="M 46.59375 -31.140625 C 23.050781 -56.816406 11.28125 -88.296875 11.28125 -125.578125 C 11.28125 -162.867188 23.050781 -194.429688 46.59375 -220.265625 C 70.144531 -246.097656 100.070312 -259.015625 136.375 -259.015625 C 169.726562 -259.015625 197.203125 -248.550781 218.796875 -227.625 L 218.796875 -251.65625 L 305.625 -251.65625 L 305.625 0 L 219.765625 0 L 219.765625 -28.453125 L 218.796875 -28.453125 C 197.203125 -4.578125 169.726562 7.359375 136.375 7.359375 C 100.070312 7.359375 70.144531 -5.472656 46.59375 -31.140625 Z M 120.4375 -168.25 C 109.15625 -157.132812 103.515625 -142.910156 103.515625 -125.578125 C 103.515625 -108.242188 108.910156 -94.097656 119.703125 -83.140625 C 130.492188 -72.191406 144.71875 -66.71875 162.375 -66.71875 C 179.382812 -66.71875 193.363281 -72.273438 204.3125 -83.390625 C 215.269531 -94.515625 220.75 -108.578125 220.75 -125.578125 C 220.75 -142.910156 215.109375 -157.132812 203.828125 -168.25 C 192.546875 -179.375 178.726562 -184.9375 162.375 -184.9375 C 145.695312 -184.9375 131.71875 -179.375 120.4375 -168.25 Z M 120.4375 -168.25 "/></g></g></g><g fill="#ffffff" fill-opacity="1"><g transform="translate(1815.416268, 428.307037)"><g><path d="M 18.15625 61.8125 L 89.28125 26.984375 C 102.363281 48.566406 125.09375 59.359375 157.46875 59.359375 C 172.507812 59.359375 186.488281 54.535156 199.40625 44.890625 C 212.332031 35.242188 218.796875 20.441406 218.796875 0.484375 L 218.796875 -18.15625 C 203.421875 -1.144531 175.945312 7.359375 136.375 7.359375 C 100.070312 7.359375 70.144531 -5.472656 46.59375 -31.140625 C 23.050781 -56.816406 11.28125 -88.296875 11.28125 -125.578125 C 11.28125 -162.867188 23.050781 -194.429688 46.59375 -220.265625 C 70.144531 -246.097656 100.070312 -259.015625 136.375 -259.015625 C 168.75 -259.015625 195.726562 -249.039062 217.3125 -229.09375 L 218.796875 -229.09375 L 218.796875 -251.65625 L 305.625 -251.65625 L 305.625 6.875 C 305.625 47.75 292.050781 79.304688 264.90625 101.546875 C 237.757812 123.785156 201.945312 134.90625 157.46875 134.90625 C 85.519531 134.90625 39.082031 110.539062 18.15625 61.8125 Z M 120.4375 -168.25 C 109.15625 -157.132812 103.515625 -142.910156 103.515625 -125.578125 C 103.515625 -108.242188 108.910156 -94.097656 119.703125 -83.140625 C 130.492188 -72.191406 144.71875 -66.71875 162.375 -66.71875 C 179.382812 -66.71875 193.363281 -72.273438 204.3125 -83.390625 C 215.269531 -94.515625 220.75 -108.578125 220.75 -125.578125 C 220.75 -142.910156 215.109375 -157.132812 203.828125 -168.25 C 192.546875 -179.375 178.726562 -184.9375 162.375 -184.9375 C 145.695312 -184.9375 131.71875 -179.375 120.4375 -168.25 Z M 120.4375 -168.25 "/></g></g></g><g fill="#ffffff" fill-opacity="1"><g transform="translate(2128.871226, 428.307037)"><g><path d="M 53.21875 -29.921875 C 25.257812 -54.773438 11.28125 -86.660156 11.28125 -125.578125 C 11.28125 -164.492188 25.832031 -196.460938 54.9375 -221.484375 C 84.050781 -246.503906 120.023438 -259.015625 162.859375 -259.015625 C 205.054688 -259.015625 240.625 -246.421875 269.5625 -221.234375 C 298.507812 -196.054688 312.984375 -164.171875 312.984375 -125.578125 C 312.984375 -86.992188 298.835938 -55.191406 270.546875 -30.171875 C 242.253906 -5.148438 206.359375 7.359375 162.859375 7.359375 C 117.734375 7.359375 81.1875 -5.066406 53.21875 -29.921875 Z M 120.4375 -168.25 C 109.15625 -157.132812 103.515625 -142.910156 103.515625 -125.578125 C 103.515625 -108.242188 108.910156 -94.097656 119.703125 -83.140625 C 130.492188 -72.191406 144.71875 -66.71875 162.375 -66.71875 C 179.382812 -66.71875 193.363281 -72.273438 204.3125 -83.390625 C 215.269531 -94.515625 220.75 -108.578125 220.75 -125.578125 C 220.75 -142.910156 215.109375 -157.132812 203.828125 -168.25 C 192.546875 -179.375 178.726562 -184.9375 162.375 -184.9375 C 145.695312 -184.9375 131.71875 -179.375 120.4375 -168.25 Z M 120.4375 -168.25 "/></g></g></g></g></g></g><g clip-path="url(#b220b6f6de)"><g transform="matrix(1, 0, 0, 1, 2146, 468)"><g clip-path="url(#0b30a55edb)"><g clip-path="url(#1127648e98)"><path fill="#fbc03c" d="M 0.972656 0.871094 L 289.738281 0.871094 L 289.738281 84.304688 L 0.972656 84.304688 Z M 0.972656 0.871094 " fill-opacity="1" fill-rule="nonzero"/></g></g></g></g></g></g></svg>